# xmcd
#
# Track frame offsets: 
#        150
#        21977
#        37692
#        53940
#        74240
#        97997
#        112352
#        130200
#        150445
#        169770
#        199417
#        215197
#
# Disc length: 3134 seconds
#
# Revision: 0
# Processed by: cddbd v1.5.2PL0 Copyright (c) Steve Scherf et al.
# Submitted via: ExactAudioCopyFreeDBPlugin 1.0
#
DISCID=b50c3c0c
DTITLE=The Stylistics - The Stylistics Cover
DYEAR=1900
DGENRE=Soul
TTITLE0=SUDDENLY
TTITLE1=CAN'T GIVE YOU ANYTHING
TTITLE2=BEAUTIFUL NAME
TTITLE3=HUMAN NATURE
TTITLE4=MIRAI-E～MOTHER'S LOVE
TTITLE5=SO MUCH IN LOVE
TTITLE6=SHAPE OF MY HEART
TTITLE7=I LOVE YOU
TTITLE8=EVERYTIME YOU GO AWAY
TTITLE9=LAST SMILE
TTITLE10=UPTOWN GIRL
TTITLE11=BRIDGE OF LIFE
EXTD=
EXTT0=
EXTT1=
EXTT2=
EXTT3=
EXTT4=
EXTT5=
EXTT6=
EXTT7=
EXTT8=
EXTT9=
EXTT10=
EXTT11=
PLAYORDER=
